<?xml version="1.0" encoding="UTF-8" standalone="no"?>
<svg width="400px" height="704px" viewBox="0 0 400 704" version="1.1" xmlns="http://www.w3.org/2000/svg" xmlns:xlink="http://www.w3.org/1999/xlink" xmlns:sketch="http://www.bohemiancoding.com/sketch/ns">
    <!-- Generator: Sketch 3.3.2 (12043) - http://www.bohemiancoding.com/sketch -->
    <title>Shape</title>
    <desc>Created with Sketch.</desc>
    <defs></defs>
    <g id="Page-1" stroke="none" stroke-width="1" fill="none" fill-rule="evenodd" sketch:type="MSPage">
        <g id="smartphone24" sketch:type="MSLayerGroup" fill="#FFFFFF">
            <path d="M371.1,0.4 L28.9,0.4 C13.4,0.4 0.8,12.9 0.8,28.5 L0.8,675.4 C0.8,690.9 13.5,703.5 28.9,703.5 L371.1,703.5 C386.6,703.5 399.2,691 399.2,675.4 L399.2,28.6 C399.2,13.1 386.6,0.4 371.1,0.4 L371.1,0.4 Z M200,23.9 C211.7,23.9 221.1,33.3 221.1,45 C221.1,56.7 211.7,66.1 200,66.1 C188.3,66.1 178.9,56.7 178.9,45 C178.9,33.3 188.3,23.9 200,23.9 L200,23.9 Z M201.1,680.1 C184.8,680.1 171.7,667 171.7,650.7 C171.7,634.4 184.8,621.3 201.1,621.3 C217.4,621.3 230.5,634.4 230.5,650.7 C230.5,667 217.3,680.1 201.1,680.1 L201.1,680.1 Z M364.1,574.7 C364.1,582.5 357.8,588.8 350,588.8 L50,588.8 C42.2,588.8 35.9,582.5 35.9,574.7 L35.9,103.6 C35.9,95.8 42.2,89.5 50,89.5 L350,89.5 C357.8,89.5 364.1,95.8 364.1,103.6 L364.1,574.7 L364.1,574.7 Z" id="Shape" sketch:type="MSShapeGroup"></path>
        </g>
    </g>
</svg>