<svg xmlns="http://www.w3.org/2000/svg" width="407.605" height="407.605" viewBox="0 0 407.605 407.605"><path d="M203.805 303.26c11.283 0 105.45-116.967 105.45-175.208 0-58.24-47.212-105.452-105.45-105.452-58.242 0-105.453 47.213-105.453 105.452 0 58.24 94.578 175.21 105.453 175.21zm-68.115-178.9c0-37.62 30.494-68.114 68.115-68.114 37.617 0 68.113 30.495 68.113 68.113 0 37.617-30.496 68.113-68.113 68.113-37.62 0-68.115-30.496-68.115-68.114z"/><path d="M391.088 222.666c0-9.713-7.9-17.614-17.613-17.614h-64.223c-1.34 0-2.883-.07-4.58 2.776-3.39 5.688-3.092 5.188-6.273 10.453-1.48 2.45.76 3.28 1.68 3.28h73.397c.588 0 1.104.518 1.104 1.104L391.1 367.39c0 .59-.515 1.106-1.104 1.106H17.616a1.133 1.133 0 0 1-1.105-1.105L33.03 222.667c0-.588.516-1.104 1.105-1.104h72.826c1.5 0 3.874-.872 1.173-5.27-3.17-5.156-1.94-3.645-5.3-9.353-1.25-2.126-2.982-1.89-5.327-1.89H34.133c-9.71 0-17.613 7.902-17.613 17.615L0 367.393c0 9.713 7.902 17.613 17.615 17.613h372.377c9.715 0 17.613-7.9 17.613-17.613l-16.517-144.727z"/></svg>