<?xml version="1.0" encoding="iso-8859-1"?>
<!-- Generator: Adobe Illustrator 16.0.0, SVG Export Plug-In . SVG Version: 6.00 Build 0)  -->
<!DOCTYPE svg PUBLIC "-//W3C//DTD SVG 1.1//EN" "http://www.w3.org/Graphics/SVG/1.1/DTD/svg11.dtd">
<svg version="1.1" id="Capa_1" xmlns="http://www.w3.org/2000/svg" xmlns:xlink="http://www.w3.org/1999/xlink" x="0px" y="0px"
	 width="885.1px" height="885.1px" viewBox="0 0 885.1 885.1" style="enable-background:new 0 0 885.1 885.1;" xml:space="preserve"
	>
<g>
	<g>
		<path d="M35.5,248.4v531.401c0,12.898,8.2,24.299,20.4,28.398l228.3,76.9V290.4L75,220C55.6,213.4,35.5,227.9,35.5,248.4z"/>
		<path d="M632.4,492.699c-8.601,9.102-19.601,15.5-31.5,18.5V801.4l209.1,70.4c19.4,6.5,39.6-7.9,39.6-28.4V312
			c0-12.9-8.199-24.3-20.399-28.4L786,269c-9.5,26.5-24.8,56.1-45.8,88.6C712.5,400.5,675.2,447.301,632.4,492.699z"/>
		<path d="M537.6,492.6C496,448.199,459.2,401.9,431,358.7c-21.8-33.5-37.6-63.7-47.2-90.4l-65.6,22.1v594.7l248.7-83.799V510.6
			C555.8,507.301,545.6,501.199,537.6,492.6z"/>
		<path d="M585.5,0c-0.2,0-0.4,0-0.5,0C484.7,0,401.9,80.4,399.1,180.7c-0.5,17.4,1.4,34.3,5.4,50.4c1.6,8.6,4.2,17.8,7.8,27.6
			c17.2,47.3,44.5,90.3,75.2,130c19.9,25.8,61,94.4,97.5,94.4c38.8,0,83.3-76.299,103.5-103.6c27.3-36.899,53.5-76.7,69.1-120.1
			c3.601-10,6.301-19.5,7.9-28.3c3.6-14.4,5.5-29.5,5.5-45.1C771,83.5,688,0.3,585.5,0z M600.9,278.7c-5.2,0.8-10.5,1.3-15.9,1.3
			c-6.2,0-12.2-0.6-18.1-1.7c-29.101-5.4-53.7-23.8-67.601-48.9c-7.8-14.1-12.2-30.2-12.2-47.4c0-54.1,43.9-98,98-98
			c54.101,0,98,43.9,98,98c0,17.5-4.6,33.9-12.6,48.1C656.1,255.4,630.7,273.8,600.9,278.7z"/>
	</g>
</g>
<g>
</g>
<g>
</g>
<g>
</g>
<g>
</g>
<g>
</g>
<g>
</g>
<g>
</g>
<g>
</g>
<g>
</g>
<g>
</g>
<g>
</g>
<g>
</g>
<g>
</g>
<g>
</g>
<g>
</g>
</svg>
