<svg xmlns="http://www.w3.org/2000/svg" width="885.1" height="885.1" viewBox="0 0 885.1 885.1"><path d="M35.5 248.4v531.4c0 12.9 8.2 24.3 20.4 28.4l228.3 76.9V290.4L75 220c-19.4-6.6-39.5 7.9-39.5 28.4zM632.4 492.7c-8.6 9.1-19.6 15.5-31.5 18.5v290.2L810 871.8c19.4 6.5 39.6-7.9 39.6-28.4V312c0-12.9-8.2-24.3-20.4-28.4L786 269c-9.5 26.5-24.8 56.1-45.8 88.6-27.7 42.9-65 89.7-107.8 135.1zM537.6 492.6C496 448.2 459.2 401.9 431 358.7c-21.8-33.5-37.6-63.7-47.2-90.4l-65.6 22.1v594.7l248.7-83.8V510.6c-11.1-3.3-21.3-9.4-29.3-18zM585.5 0h-.5C484.7 0 401.9 80.4 399.1 180.7c-.5 17.4 1.4 34.3 5.4 50.4 1.6 8.6 4.2 17.8 7.8 27.6 17.2 47.3 44.5 90.3 75.2 130 19.9 25.8 61 94.4 97.5 94.4 38.8 0 83.3-76.3 103.5-103.6 27.3-36.9 53.5-76.7 69.1-120.1 3.6-10 6.3-19.5 7.9-28.3 3.6-14.4 5.5-29.5 5.5-45.1C771 83.5 688 .3 585.5 0zm15.4 278.7c-5.2.8-10.5 1.3-15.9 1.3-6.2 0-12.2-.6-18.1-1.7-29.1-5.4-53.7-23.8-67.6-48.9-7.8-14.1-12.2-30.2-12.2-47.4 0-54.1 43.9-98 98-98s98 43.9 98 98c0 17.5-4.6 33.9-12.6 48.1-14.4 25.3-39.8 43.7-69.6 48.6z"/></svg>