<svg width="400" height="704" viewBox="0 0 400 704" xmlns="http://www.w3.org/2000/svg"><title>Shape</title><path d="M371.1.4H28.9C13.4.4.8 12.9.8 28.5v646.9c0 15.5 12.7 28.1 28.1 28.1h342.2c15.5 0 28.1-12.5 28.1-28.1V28.6c0-15.5-12.6-28.2-28.1-28.2zM200 23.9c11.7 0 21.1 9.4 21.1 21.1 0 11.7-9.4 21.1-21.1 21.1-11.7 0-21.1-9.4-21.1-21.1 0-11.7 9.4-21.1 21.1-21.1zm1.1 656.2c-16.3 0-29.4-13.1-29.4-29.4 0-16.3 13.1-29.4 29.4-29.4 16.3 0 29.4 13.1 29.4 29.4 0 16.3-13.2 29.4-29.4 29.4zm163-105.4c0 7.8-6.3 14.1-14.1 14.1H50c-7.8 0-14.1-6.3-14.1-14.1V103.6c0-7.8 6.3-14.1 14.1-14.1h300c7.8 0 14.1 6.3 14.1 14.1v471.1z" fill="#FFF" fill-rule="evenodd"/></svg>